# xmcd
#
# Track frame offsets: 
#        150
#        19269
#        34680
#        47625
#        65696
#
# Disc length: 1054 seconds
#
# Revision: 0
# Processed by: cddbd v1.5.2PL0 Copyright (c) Steve Scherf et al.
# Submitted via: ExactAudioCopyFreeDBPlugin 1.0
#
DISCID=3d041c05
DTITLE=Urban Zakapa - Still
DYEAR=2016
DGENRE=Ballad
TTITLE0=널 사랑하지않아
TTITLE1=궁금해
TTITLE2=다좋아
TTITLE3=Nearness Is to Love
TTITLE4=아직도 나를 사랑한다면
EXTD=
EXTT0=
EXTT1=
EXTT2=
EXTT3=
EXTT4=
PLAYORDER=
